<?xml version="1.0" encoding="UTF-8" standalone="no"?>
<!-- Generator: Gravit.io -->
<svg xmlns="http://www.w3.org/2000/svg" xmlns:xlink="http://www.w3.org/1999/xlink" style="isolation:isolate" viewBox="69 41.254 44 59.275" width="44pt" height="59.275pt"><g><g><path d=" M 91 58.189 L 91 66.657 L 91 66.657 L 83.667 62.423 L 91 58.189 Z  M 91 58.189 L 91 66.657 L 91 66.657 L 98.333 62.423 L 91 58.189 Z " fill-rule="evenodd" fill="rgb(64,198,104)"/><path d=" M 91 66.657 L 91 75.125 L 91 75.125 L 98.333 70.891 L 91 66.657 Z  M 98.333 62.423 L 98.333 70.891 L 98.333 70.891 L 91 66.657 L 98.333 62.423 Z " fill-rule="evenodd" fill="rgb(103,206,134)"/><path d=" M 91 66.657 L 91 75.125 L 91 75.125 L 83.667 70.891 L 91 66.657 Z  M 83.667 62.423 L 83.667 70.891 L 83.667 70.891 L 91 66.657 L 83.667 62.423 Z " fill-rule="evenodd" fill="rgb(59,156,86)"/><g><path d=" M 76.333 75.125 L 76.333 83.593 L 76.333 83.593 L 69 79.359 L 76.333 75.125 Z  M 83.667 79.359 L 83.667 87.827 L 83.667 87.827 L 76.333 83.593 L 83.667 79.359 Z  M 91 83.593 L 91 92.061 L 91 92.061 L 83.667 87.827 L 91 83.593 Z  M 83.667 79.359 L 83.667 87.827 L 83.667 87.827 L 91 83.593 L 83.667 79.359 Z  M 76.333 75.125 L 76.333 83.593 L 76.333 83.593 L 83.667 79.359 L 76.333 75.125 Z  M 69 70.891 L 69 79.359 L 69 79.359 L 76.333 75.125 L 69 70.891 Z  M 76.333 58.189 L 76.333 66.657 L 76.333 66.657 L 69 62.423 L 76.333 58.189 Z  M 69 62.423 L 69 70.891 L 69 70.891 L 76.333 66.657 L 69 62.423 Z  M 76.333 66.657 L 76.333 75.125 L 76.333 75.125 L 69 70.891 L 76.333 66.657 Z  M 69 53.956 L 69 62.423 L 69 62.423 L 76.333 58.189 L 69 53.956 Z " fill-rule="evenodd" fill="rgb(59,156,86)"/></g><g><path d=" M 105.667 49.722 L 105.667 58.189 L 105.667 58.189 L 98.333 53.956 L 105.667 49.722 Z  M 98.333 45.488 L 98.333 53.956 L 98.333 53.956 L 91 49.722 L 98.333 45.488 Z  M 91 41.254 L 91 49.722 L 91 49.722 L 83.667 45.488 L 91 41.254 Z  M 83.667 45.488 L 83.667 53.956 L 83.667 53.956 L 76.333 49.722 L 83.667 45.488 Z  M 76.333 49.722 L 76.333 58.189 L 76.333 58.189 L 69 53.956 L 76.333 49.722 Z  M 76.333 49.722 L 76.333 58.189 L 76.333 58.189 L 83.667 53.956 L 76.333 49.722 Z  M 83.667 45.488 L 83.667 53.956 L 83.667 53.956 L 91 49.722 L 83.667 45.488 Z  M 91 41.254 L 91 49.722 L 91 49.722 L 98.333 45.488 L 91 41.254 Z  M 98.333 45.488 L 98.333 53.956 L 98.333 53.956 L 105.667 49.722 L 98.333 45.488 Z  M 105.667 49.722 L 105.667 58.189 L 105.667 58.189 L 113 53.956 L 105.667 49.722 Z " fill-rule="evenodd" fill="rgb(64,198,104)"/></g><g><path d=" M 98.333 87.827 L 98.333 96.295 L 98.333 96.295 L 105.667 92.061 L 98.333 87.827 Z  M 98.333 87.827 L 98.333 96.295 L 98.333 96.295 L 91 92.061 L 98.333 87.827 Z  M 105.667 92.061 L 105.667 100.528 L 105.667 100.528 L 98.333 96.295 L 105.667 92.061 Z  M 98.333 79.359 L 98.333 87.827 L 98.333 87.827 L 91 83.593 L 98.333 79.359 Z  M 105.667 58.189 L 105.667 66.657 L 105.667 66.657 L 113 62.423 L 105.667 58.189 Z  M 113 62.423 L 113 70.891 L 113 70.891 L 105.667 66.657 L 113 62.423 Z  M 105.667 66.657 L 105.667 75.125 L 105.667 75.125 L 113 70.891 L 105.667 66.657 Z  M 113 70.891 L 113 79.359 L 113 79.359 L 105.667 75.125 L 113 70.891 Z  M 105.667 75.125 L 105.667 83.593 L 105.667 83.593 L 113 79.359 L 105.667 75.125 Z  M 105.667 75.125 L 105.667 83.593 L 105.667 83.593 L 98.333 79.376 L 105.667 75.125 Z  M 98.333 79.359 L 98.333 87.827 L 98.333 87.827 L 105.667 83.593 L 98.333 79.359 Z  M 91 83.593 L 91 92.061 L 91 92.061 L 98.333 87.827 L 91 83.593 Z  M 113 53.956 L 113 62.423 L 113 62.423 L 105.667 58.189 L 113 53.956 Z " fill-rule="evenodd" fill="rgb(103,206,134)"/></g></g></g></svg>